<?xml version="1.0" encoding="utf-8"?>
<!-- Generator: Adobe Illustrator 16.0.0, SVG Export Plug-In . SVG Version: 6.00 Build 0)  -->
<!DOCTYPE svg PUBLIC "-//W3C//DTD SVG 1.1//EN" "http://www.w3.org/Graphics/SVG/1.1/DTD/svg11.dtd">
<svg version="1.1" xmlns="http://www.w3.org/2000/svg" xmlns:xlink="http://www.w3.org/1999/xlink" x="0px" y="0px"
	 width="475.477px" height="408.371px" viewBox="0 0 475.477 408.371" enable-background="new 0 0 475.477 408.371"
	 xml:space="preserve">
<g id="圖層_1">
</g>
<g id="圖層_2">
	<path fill="#582C22" d="M77.367,251c71.334-25-3.333-108.667,20.095-156.634c17.202-35.222,62.408-15.621,69.409-6.01
		c-25.896-5.484-46.551,1.508-50.547,16.43C104.034,150.666,181.367,267.666,77.367,251z"/>
	<path fill="#582C22" d="M155.9,71.251c24.818,16.207,35.156,35.75,33.996,55.154c-1.076,18.004-17.781,25.141-41.511,35.83
		c52.391-4.373,56.159-18.469,59.104-26.604C213.081,120.198,198.299,72.683,155.9,71.251z"/>
	<path fill="#582C22" d="M142.344,125.829c1.661,5.76,7.678,9.084,13.439,7.424c5.761-1.66,9.085-7.678,7.424-13.438
		c-1.66-5.764-7.677-9.086-13.438-7.426C144.008,114.052,140.684,120.065,142.344,125.829z"/>
	<path fill="#7BA154" d="M85.773,233.595c-73.519,24.762-38.645,135.227,56.378,147.039c70.472,8.762,131.026-13.604,214.082-81.9
		C283.096,383.3,195.342,415.944,136.438,406.917C-10.221,384.442-6.029,222.548,85.773,233.595z"/>
	<path fill="#7BA154" d="M147.516,68.294C118.385,28.503,17.039,36.819,28.508,65.007C34.568,79.901,104.58,40.673,147.516,68.294z"
		/>
	<path fill="#7BA154" d="M327.635,243.903c29.131-39.791,130.477-31.475,119.008-3.287
		C440.582,255.511,370.571,216.28,327.635,243.903z"/>
	<path fill="#7BA154" d="M310.441,229.292c10.799-48.119,107.021-81.002,107.776-50.58
		C418.613,194.788,338.758,186.81,310.441,229.292z"/>
	<path fill="#7BA154" d="M214.852,113.579c20.619,2.205,37.127,18.197,38.037,34.418c-16.698-7.209-30.038-3.861-45.928,3.314
		C218.634,138.712,218.318,130.54,214.852,113.579z"/>
	<path fill="#7BA154" d="M123.74,284.259c14.222,20.57,51.553,65.773,134.087,25.902C243.86,354.351,130.344,389.396,123.74,284.259
		z"/>
	<path fill="#7BA154" d="M134.781,266.839c22.727,10.438,77.893,30.275,128.545-46.117
		C273.854,265.853,194.09,353.899,134.781,266.839z"/>
</g>
</svg>
