<?xml version="1.0" encoding="utf-8"?>
<!-- Generator: Adobe Illustrator 16.0.0, SVG Export Plug-In . SVG Version: 6.00 Build 0)  -->
<!DOCTYPE svg PUBLIC "-//W3C//DTD SVG 1.1//EN" "http://www.w3.org/Graphics/SVG/1.1/DTD/svg11.dtd">
<svg version="1.1" xmlns="http://www.w3.org/2000/svg" xmlns:xlink="http://www.w3.org/1999/xlink" x="0px" y="0px"
	 width="475.477px" height="408.371px" viewBox="0 0 475.477 408.371" enable-background="new 0 0 475.477 408.371"
	 xml:space="preserve">
<g id="圖層_1">
</g>
<g id="圖層_2">
	<g>
		<path fill="#582C22" d="M30.034,237.333C50.701,208,101.438,225.294,146.701,206c20.333-8.667,49.333-35,49.942-81.389
			c0.515-39.194-49.318-41.311-59.813-35.722c25.691,6.377,38.194,21.409,38.295,36.856C175.367,163,151.367,183,136.367,187.333
			C102.053,197.245,40.034,187,30.034,237.333z"/>
		<path fill="#582C22" d="M151.986,77.21c-29.629,0.861-48.651,12.129-57.794,29.283c-8.484,15.917,2.035,30.726,16.69,52.233
			c-42.396-31.088-38.248-45.077-36.512-53.553C77.661,89.093,115.081,56.29,151.986,77.21z"/>
		<circle fill="#582C22" cx="127.72" cy="122.822" r="10.856"/>
		<path fill="#7BA154" d="M85.774,233.595c-73.519,24.762-38.646,135.227,56.377,147.039c70.472,8.762,131.026-13.604,214.082-81.9
			C283.096,383.3,195.342,415.944,136.438,406.917C-10.22,384.442-6.03,222.548,85.774,233.595z"/>
		<path fill="#7BA154" d="M160.681,79.066c45.623-18.722,127.709,41.295,103.208,59.344
			C250.943,147.948,211.722,77.933,160.681,79.066z"/>
		<path fill="#7BA154" d="M327.635,243.903c29.131-39.791,130.477-31.475,119.008-3.287
			C440.582,255.511,370.571,216.28,327.635,243.903z"/>
		<path fill="#7BA154" d="M310.441,229.292c10.799-48.119,107.021-81.002,107.776-50.58
			C418.613,194.788,338.758,186.81,310.441,229.292z"/>
		<path fill="#7BA154" d="M79.608,82.523c-18.736-8.888-41.166-3.869-50.413,9.488c18.005,2.572,27.634,12.394,37.438,26.811
			C63.258,101.981,67.794,95.177,79.608,82.523z"/>
		<path fill="#7BA154" d="M123.74,284.259c14.222,20.57,51.553,65.773,134.087,25.902
			C243.86,354.351,130.343,389.396,123.74,284.259z"/>
		<path fill="#7BA154" d="M134.781,266.839c22.727,10.438,77.893,30.275,128.545-46.117
			C273.854,265.853,194.09,353.899,134.781,266.839z"/>
	</g>
</g>
</svg>
