<?xml version="1.0" encoding="utf-8"?>
<!-- Generator: Adobe Illustrator 16.0.0, SVG Export Plug-In . SVG Version: 6.00 Build 0)  -->
<!DOCTYPE svg PUBLIC "-//W3C//DTD SVG 1.1//EN" "http://www.w3.org/Graphics/SVG/1.1/DTD/svg11.dtd">
<svg version="1.1" xmlns="http://www.w3.org/2000/svg" xmlns:xlink="http://www.w3.org/1999/xlink" x="0px" y="0px"
	 width="475.477px" height="408.371px" viewBox="0 0 475.477 408.371" enable-background="new 0 0 475.477 408.371"
	 xml:space="preserve">
<g id="圖層_1">
</g>
<g id="圖層_2">
	<g>
		<path fill="#582C22" d="M67.489,260.642c101.655,28.76,133.861-137.737,117.016-171.378c-17.808-35.563-62.426-15.56-69.512-5.651
			c25.992-5.815,47.523,0.982,50.533,16.478C172.125,134.041,156.597,241.241,67.489,260.642z"/>
		<path fill="#582C22" d="M115.604,68.332c-25.344,17.123-36.122,37.432-35.285,57.4c0.776,18.527,17.524,25.59,41.303,36.19
			c-52.834-3.601-56.396-18.055-59.23-26.384C57.013,119.739,72.761,70.538,115.604,68.332z"/>
		<path fill="#582C22" d="M153.299,103.341c-1.661,5.76-7.678,9.084-13.439,7.424c-5.761-1.66-9.085-7.678-7.424-13.438
			c1.66-5.764,7.677-9.086,13.438-7.426C151.635,91.563,154.959,97.577,153.299,103.341z"/>
		<path fill="#7BA154" d="M85.773,233.595c-73.519,24.762-38.645,135.227,56.378,147.039c70.472,8.762,131.026-13.604,214.082-81.9
			C283.096,383.3,195.342,415.944,136.438,406.917C-10.221,384.442-6.029,222.548,85.773,233.595z"/>
		<path fill="#7BA154" d="M126.7,67.334c16.01-41.539,96.425-52.604,93.087-25.338C218.024,56.406,157.645,33.152,126.7,67.334z"/>
		<path fill="#7BA154" d="M327.635,243.903c29.131-39.791,130.477-31.475,119.008-3.287
			C440.582,255.511,370.571,216.28,327.635,243.903z"/>
		<path fill="#7BA154" d="M310.441,229.292c10.799-48.119,107.021-81.002,107.776-50.58
			C418.613,194.788,338.758,186.81,310.441,229.292z"/>
		<path fill="#7BA154" d="M123.74,284.259c14.222,20.57,51.553,65.773,134.087,25.902
			C243.86,354.351,130.344,389.396,123.74,284.259z"/>
		<path fill="#7BA154" d="M134.781,266.839c22.727,10.438,77.893,30.275,128.545-46.117
			C273.854,265.853,194.09,353.899,134.781,266.839z"/>
		<path fill="#7BA154" d="M92.034,124.219c10.167-8.302,42.167-9.703,54.667,3.666c-16.333,3.45-24.167,10.566-29.833,14.447
			C108.2,135.971,104.867,130.04,92.034,124.219z"/>
	</g>
</g>
</svg>
