<?xml version="1.0" encoding="utf-8"?>
<!-- Generator: Adobe Illustrator 16.0.0, SVG Export Plug-In . SVG Version: 6.00 Build 0)  -->
<!DOCTYPE svg PUBLIC "-//W3C//DTD SVG 1.1//EN" "http://www.w3.org/Graphics/SVG/1.1/DTD/svg11.dtd">
<svg version="1.1" xmlns="http://www.w3.org/2000/svg" xmlns:xlink="http://www.w3.org/1999/xlink" x="0px" y="0px"
	 width="475.477px" height="408.371px" viewBox="0 0 475.477 408.371" enable-background="new 0 0 475.477 408.371"
	 xml:space="preserve">
<g id="圖層_1">
</g>
<g id="圖層_2">
	<path fill="#582C22" d="M72.867,260.833c72-44.25,11.149-92.541,15.139-145.773c2.929-39.09,52.179-37.632,62.243-31.298
		c-26.086,4.501-42.68,18.646-40.862,33.987C114.969,164.918,175.641,237.782,72.867,260.833z"/>
	<path fill="#582C22" d="M136.73,73.587c29.067,5.807,45.936,20.1,52.079,38.542c5.701,17.111-7.148,29.952-25.195,48.704
		c47-23.555,45.253-38.041,44.959-46.688C208.02,97.74,176.617,59.138,136.73,73.587z"/>
	<path fill="#582C22" d="M144.458,129.289c3.685,4.729,10.507,5.575,15.236,1.89c4.729-3.684,5.575-10.507,1.891-15.234
		c-3.686-4.731-10.507-5.576-15.237-1.892C141.619,117.739,140.771,124.558,144.458,129.289z"/>
	<path fill="#7BA154" d="M85.773,233.595c-73.519,24.762-38.645,135.227,56.378,147.039c70.472,8.762,131.026-13.604,214.082-81.9
		C283.096,383.3,195.342,415.944,136.438,406.917C-10.221,384.442-6.029,222.548,85.773,233.595z"/>
	<path fill="#7BA154" d="M127.848,73.962C86.002,47.869-4.971,93.302,16.164,115.197C27.331,126.767,77.717,64.302,127.848,73.962z"
		/>
	<path fill="#7BA154" d="M327.635,243.903c29.131-39.791,130.477-31.475,119.008-3.287
		C440.582,255.511,370.571,216.28,327.635,243.903z"/>
	<path fill="#7BA154" d="M310.441,229.292c10.799-48.119,107.021-81.002,107.776-50.58
		C418.613,194.788,338.758,186.81,310.441,229.292z"/>
	<path fill="#7BA154" d="M207.199,90.937c19.959-5.626,41.232,3.075,48.113,17.792c-18.182-0.478-29.317,7.594-41.396,20.167
		C220.063,112.857,216.729,105.39,207.199,90.937z"/>
	<path fill="#7BA154" d="M123.74,284.259c14.222,20.57,51.553,65.773,134.087,25.902C243.86,354.351,130.344,389.396,123.74,284.259
		z"/>
	<path fill="#7BA154" d="M134.781,266.839c22.727,10.438,77.893,30.275,128.545-46.117
		C273.854,265.853,194.09,353.899,134.781,266.839z"/>
</g>
</svg>
