<svg width="221" height="221" viewBox="0 0 221 221" fill="none" xmlns="http://www.w3.org/2000/svg">
<path d="M123.647 193.031C180.289 192.759 180.057 80.6294 166.383 66.2002C151.927 50.9459 131.912 67.4207 129.733 73.4124C142.259 66.7402 154.361 67.0376 158.214 74.3698C166.655 90.4362 166.674 170.428 123.647 193.031Z" fill="white"/>
<path d="M126.896 65.9272C119.68 80.0885 120.089 91.9344 125.807 100.648C131.113 108.733 140.785 107.592 154.673 106.231C129.143 118.179 123.629 112.631 120.089 109.635C113.369 103.95 107.562 77.9088 126.896 65.9272Z" fill="white"/>
<path d="M142.113 94.8961C145.328 94.8961 147.934 92.29 147.934 89.0753C147.934 85.8605 145.328 83.2544 142.113 83.2544C138.898 83.2544 136.292 85.8605 136.292 89.0753C136.292 92.29 138.898 94.8961 142.113 94.8961Z" fill="white"/>
<path d="M147.067 122.773C116.295 215.361 0.287644 182.683 14.9741 58.3027C-44.3729 208.282 152.241 247.223 147.067 122.773Z" fill="#582C22"/>
<path d="M130.005 62.3148C132.932 36.0363 182.279 12.8566 184.469 29.0235C185.626 37.5681 142.599 38.0101 130.005 62.3148Z" fill="#582C22"/>
<path d="M110.779 101.344C101.78 107.872 98.3715 119.714 102.277 127.502C108.119 119.692 115.215 117.688 124.52 116.785C115.729 114.041 113.694 110.157 110.779 101.344Z" fill="#582C22"/>
<path d="M23.7006 43.0958C37.2792 27.8627 106.745 17.9995 136.7 31.615C128.394 37.0617 126.08 43.5974 123.493 52.584C92.3634 43.6432 53.5064 34.8167 23.7006 43.0958Z" fill="white"/>
<path d="M83.5977 37.3337C46.4449 46.0458 37.0499 176.556 112.618 152.251C60.9459 152.047 59.0898 72.191 99.9368 40.6015C94.6388 34.3101 90.1341 34.8828 83.5977 37.3337Z" fill="white"/>
<path d="M33.4912 47.1372C26.6149 48.8398 23.9402 61.809 27.0234 68.2426C31.7201 78.038 77.4206 105.003 103.835 90.5702C76.6045 90.2974 55.8219 75.5953 33.4912 47.1372Z" fill="white"/>
<path d="M28.6565 83.0737C28.6565 83.0737 39.2687 98.315 43.8886 102.187C43.7498 118.693 46.4931 133.692 63.9752 156.709C41.508 147.57 24.6787 122.196 28.6565 83.0737Z" fill="white"/>
<path d="M181.039 84.1033C212.968 69.1251 241.018 136.116 181.924 143.197C209.973 130.397 206.161 95.5408 181.039 84.1033Z" fill="white"/>
</svg>
