<?xml version="1.0" encoding="utf-8"?>
<!-- Generator: Adobe Illustrator 16.0.0, SVG Export Plug-In . SVG Version: 6.00 Build 0)  -->
<!DOCTYPE svg PUBLIC "-//W3C//DTD SVG 1.1//EN" "http://www.w3.org/Graphics/SVG/1.1/DTD/svg11.dtd">
<svg version="1.1" xmlns="http://www.w3.org/2000/svg" xmlns:xlink="http://www.w3.org/1999/xlink" x="0px" y="0px"
	 width="269.292px" height="269.29px" viewBox="0 0 269.292 269.29" enable-background="new 0 0 269.292 269.29"
	 xml:space="preserve">
<g id="圖層_1">
</g>
<g id="圖層_2">
	<g>
		<path fill="#582C22" d="M151.205,235.832c69.333-0.333,69.049-137.585,52.311-155.247c-17.695-18.672-42.195,1.494-44.862,8.828
			c15.333-8.167,30.146-7.803,34.862,1.172C203.849,110.251,203.872,208.165,151.205,235.832z"/>
		<path fill="#582C22" d="M155.183,80.251c-8.833,17.334-8.333,31.834-1.333,42.5c6.494,9.896,18.333,8.5,35.333,6.834
			c-31.25,14.625-38,7.833-42.333,4.166C138.625,126.793,131.516,94.917,155.183,80.251z"/>
		<circle fill="#582C22" cx="173.808" cy="108.585" r="7.125"/>
		<path fill="#7BA154" d="M179.872,149.832C142.205,263.165,0.206,223.165,18.183,70.918
			C-54.461,254.499,186.205,302.165,179.872,149.832z"/>
		<path fill="#7BA154" d="M158.988,75.829c3.583-32.166,63.986-60.539,66.667-40.75C227.071,45.538,174.404,46.079,158.988,75.829z"
			/>
		<path fill="#7BA154" d="M135.454,123.603c-11.016,7.99-15.188,22.486-10.407,32.018c7.15-9.559,15.836-12.013,27.226-13.118
			C141.512,139.144,139.022,134.39,135.454,123.603z"/>
		<path fill="#582C22" d="M28.864,52.304c16.621-18.646,101.651-30.719,138.318-14.053c-10.167,6.667-13,14.667-16.167,25.667
			C112.911,52.974,65.348,42.17,28.864,52.304z"/>
		<path fill="#582C22" d="M102.182,45.251c-45.477,10.664-56.977,170.414,35.523,140.664c-63.25-0.25-65.522-97.997-15.523-136.664
			C115.697,41.55,110.183,42.251,102.182,45.251z"/>
		<path fill="#582C22" d="M40.849,57.251c-8.417,2.084-11.691,17.959-7.917,25.834c5.749,11.99,61.689,44.996,94.022,27.33
			C93.622,110.081,68.183,92.085,40.849,57.251z"/>
		<path fill="#582C22" d="M34.931,101.239c0,0,12.99,18.656,18.645,23.395c-0.17,20.204,3.188,38.564,24.587,66.738
			C50.662,180.185,30.062,149.126,34.931,101.239z"/>
		<path fill="#582C22" d="M221.455,102.499c39.083-18.334,73.417,63.666,1.083,72.333
			C256.872,159.165,252.205,116.499,221.455,102.499z"/>
	</g>
</g>
</svg>
